<svg width="25" height="25" viewBox="0 0 25 25" fill="none" xmlns="http://www.w3.org/2000/svg">
<path d="M16.9385 9.3625C16.7229 9.3625 16.5427 9.3646 16.4073 9.36772L10.4208 1.07915C9.93228 0.403125 9.14375 0 8.3104 0H7.8125C7.65522 0 7.50728 0.0708496 7.40835 0.192725C7.30938 0.3146 7.27085 0.475 7.30312 0.628125L9.26665 9.95625L4.88125 10.3948L1.93125 7.44375C1.83335 7.34687 1.70103 7.29165 1.5625 7.29165H0.52085C0.35 7.29165 0.190625 7.37603 0.0927246 7.51562C-0.00415039 7.65625 -0.0270508 7.8354 0.0333496 7.99478L1.40625 11.6562L0.35625 12.0063C0.14375 12.0771 0 12.276 0 12.5C0 12.724 0.14375 12.9229 0.35625 12.9937L1.40625 13.3438L0.0333496 17.0042C-0.0270508 17.1646 -0.00415039 17.3438 0.0927246 17.4833C0.190625 17.6239 0.35 17.7083 0.52085 17.7083H1.5625C1.70103 17.7083 1.83335 17.6531 1.93125 17.5562L4.88228 14.6052L9.26768 15.0437L7.30415 24.3718C7.27188 24.525 7.3104 24.6854 7.40938 24.8072C7.50728 24.9291 7.65522 25 7.8125 25H8.3104C9.14375 25 9.9333 24.5968 10.4208 23.9208L16.4073 15.6323C16.5427 15.6344 16.7229 15.6375 16.9385 15.6375C19.949 15.6375 25 15.2302 25 12.5C25 9.76978 19.949 9.3625 16.9385 9.3625ZM20.4385 14.0469C20.3969 14.0573 20.3542 14.0625 20.3125 14.0625C20.0792 14.0625 19.8666 13.9052 19.8083 13.6677C19.7386 13.3886 19.9083 13.1062 20.1875 13.0365C20.1896 13.0354 20.8333 12.8511 20.8333 12.5C20.8333 12.1489 20.1896 11.9646 20.1833 11.9625C19.9062 11.8896 19.7386 11.6062 19.8094 11.3292C19.8802 11.051 20.1625 10.8813 20.4385 10.9531C20.9719 11.0865 21.875 11.5625 21.875 12.5C21.875 13.4375 20.9719 13.9135 20.4385 14.0469Z" fill="#5489F0"/>
</svg>
