<svg width="38" height="38" viewBox="0 0 38 38" fill="none" xmlns="http://www.w3.org/2000/svg">
<path d="M14.5784 24.2839C14.3472 24.2839 14.1214 24.2371 13.9004 24.1707V31.5306C13.9004 31.9604 14.1703 32.3436 14.5751 32.488C14.687 32.5287 14.8029 32.5477 14.9175 32.5477C15.2159 32.5477 15.5068 32.4162 15.7034 32.1754L22.1813 24.2839H19.5496L15.9347 28.688V24.2839H14.5784Z" fill="#5489F0"/>
<path d="M9.64851 17.5032L11.2068 18.0857L10.8894 15.7951L10.1889 15.5334C10.0743 15.4907 9.95427 15.469 9.83224 15.469H1.01715C0.455674 15.469 0 15.9246 0 16.4861C0 17.0475 0.455674 17.5032 1.01715 17.5032H9.64851Z" fill="#5489F0"/>
<path d="M37.9998 27.7591C37.9998 25.0291 35.7865 22.8158 33.0565 22.8158C31.7851 22.8158 30.629 23.3 29.7528 24.0893L26.8031 21.937L26.1027 22.6619C25.8836 22.8837 25.5995 23.1203 25.2822 23.3447L28.5519 25.7309C28.2726 26.3499 28.1131 27.0355 28.1131 27.7591C28.1131 30.4891 30.3264 32.7024 33.0564 32.7024C35.7864 32.7024 37.9998 30.4891 37.9998 27.7591ZM33.0565 29.4387C32.1411 29.4387 31.3999 28.7057 31.3802 27.795C31.3802 27.7828 31.3768 27.7712 31.3768 27.759C31.3768 26.9969 31.8881 26.3601 32.5838 26.1554C32.7344 26.1106 32.891 26.0794 33.0564 26.0794C33.984 26.0794 34.7361 26.8314 34.7361 27.7591C34.7361 28.6867 33.9841 29.4387 33.0565 29.4387Z" fill="#5489F0"/>
<path d="M25.7457 21.1649L32.612 14.06C33.1362 13.5297 32.9551 13.4348 32.2092 13.4348H13.2228C12.4769 13.4348 11.9527 13.7847 12.0585 14.5232L12.3162 16.3283L12.6437 18.6229L13.0309 21.3312C13.1042 21.8438 13.4649 22.4073 13.926 22.7083C14.1295 22.8413 14.3505 22.9281 14.579 22.9281H15.9351H20.6635H22.8292C22.9961 22.9281 23.1792 22.8941 23.3663 22.8413C23.624 22.7687 23.8905 22.6541 24.1454 22.5151C24.5333 22.3041 24.8933 22.0418 25.1381 21.7936L25.7457 21.1649Z" fill="#5489F0"/>
<path d="M25.7669 7.3319H22.0374L20.9355 5.29761H18.647L16.867 8.68807H15.2566L13.9004 12.0785H30.8526L29.7507 10.0442H27.4621L25.7669 7.3319Z" fill="#5489F0"/>
</svg>
