<svg width="25" height="25" viewBox="0 0 25 25" fill="none" xmlns="http://www.w3.org/2000/svg">
<path d="M24.4565 21.7393C23.2196 21.7393 22.5772 22.4393 22.062 23.0023C21.5957 23.511 21.2261 23.9131 20.4674 23.9131C19.7087 23.9131 19.3391 23.511 18.8718 23.0023C18.3555 22.4392 17.712 21.7393 16.4761 21.7393C15.2413 21.7393 14.6 22.4393 14.0837 23.0023C13.6174 23.511 13.2489 23.9131 12.4924 23.9131C11.7369 23.9131 11.3685 23.511 10.9022 23.0023C10.3869 22.4403 9.74561 21.7393 8.50974 21.7393C7.27387 21.7393 6.63255 22.4403 6.11734 23.0023C5.6521 23.511 5.28362 23.9131 4.5271 23.9131C3.77058 23.9131 3.4021 23.511 2.9358 23.0023C2.42058 22.4403 1.77819 21.7393 0.543393 21.7393C0.243495 21.7393 0 21.9827 0 22.2827C0 22.5827 0.243495 22.8262 0.543495 22.8262C1.30002 22.8262 1.66849 23.2284 2.1348 23.737C2.65002 24.299 3.29241 25.0001 4.5272 25.0001C5.762 25.0001 6.40327 24.299 6.91961 23.737C7.38485 23.2284 7.75439 22.8262 8.50984 22.8262C9.2653 22.8262 9.63377 23.2284 10.1001 23.737C10.6153 24.299 11.2577 25.0001 12.4925 25.0001C13.7273 25.0001 14.3686 24.3001 14.8849 23.737C15.3512 23.2284 15.7197 22.8262 16.4762 22.8262C17.2338 22.8262 17.6034 23.2284 18.0708 23.737C18.587 24.299 19.2294 25.0001 20.4664 25.0001C21.7034 25.0001 22.3458 24.3001 22.8621 23.737C23.3282 23.2284 23.6978 22.8262 24.4565 22.8262C24.7565 22.8262 25 22.5827 25 22.2827C25 21.9827 24.7565 21.7393 24.4565 21.7393Z" fill="#5489F0"/>
<path d="M24.4565 19.5654C23.2196 19.5654 22.5772 20.2654 22.062 20.8285C21.5957 21.3372 21.2261 21.7393 20.4674 21.7393C19.7087 21.7393 19.3391 21.3372 18.8718 20.8285C18.3554 20.2654 17.712 19.5654 16.4761 19.5654C15.2413 19.5654 14.6 20.2654 14.0837 20.8285C13.6174 21.3372 13.2489 21.7393 12.4924 21.7393C11.7369 21.7393 11.3685 21.3372 10.9022 20.8285C10.3869 20.2665 9.74566 19.5654 8.50979 19.5654C7.27392 19.5654 6.6326 20.2665 6.11739 20.8285C5.65215 21.3372 5.28367 21.7393 4.52715 21.7393C3.77063 21.7393 3.40215 21.3372 2.93585 20.8285C2.42063 20.2665 1.77824 19.5654 0.543495 19.5654C0.243495 19.5654 0 19.8089 0 20.1089C0 20.4089 0.243495 20.6524 0.543495 20.6524C1.30002 20.6524 1.66849 21.0546 2.1348 21.5633C2.65002 22.1252 3.29241 22.8263 4.52715 22.8263C5.7619 22.8263 6.40322 22.1252 6.91956 21.5633C7.38479 21.0546 7.75434 20.6524 8.50979 20.6524C9.26524 20.6524 9.63372 21.0546 10.1 21.5633C10.6152 22.1252 11.2576 22.8263 12.4924 22.8263C13.7272 22.8263 14.3685 22.1263 14.8848 21.5633C15.3511 21.0546 15.7196 20.6524 16.4761 20.6524C17.2337 20.6524 17.6033 21.0546 18.0707 21.5633C18.5869 22.1252 19.2293 22.8263 20.4663 22.8263C21.7032 22.8263 22.3456 22.1263 22.8619 21.5633C23.3282 21.0546 23.6978 20.6524 24.4565 20.6524C24.7565 20.6524 25 20.4089 25 20.1089C25 19.8089 24.7565 19.5654 24.4565 19.5654Z" fill="#5489F0"/>
<path d="M22.7634 13.3338C22.6884 13.1925 22.5557 13.0914 22.4003 13.0566L12.6177 10.8827C12.5406 10.8653 12.459 10.8653 12.3819 10.8827L2.59929 13.0566C2.44383 13.0914 2.31126 13.1925 2.23626 13.3338C2.16233 13.4751 2.15367 13.6414 2.21236 13.7892L5.4688 21.9294C5.53402 22.0925 5.67316 22.2142 5.8438 22.2555C6.01336 22.2936 6.19378 22.2544 6.32748 22.1403C6.53291 21.9631 6.71878 21.7642 6.90358 21.5642C7.37534 21.0544 7.74707 20.6522 8.51012 20.6522C9.27316 20.6522 9.6449 21.0555 10.1167 21.5642C10.3058 21.7686 10.4971 21.9729 10.7079 22.1533C10.8058 22.2371 10.9308 22.2827 11.059 22.2827H11.9569V13.587C11.9569 13.287 12.2003 13.0435 12.5003 13.0435C12.8004 13.0435 13.0438 13.287 13.0438 13.587V22.2827H13.9264C14.0558 22.2827 14.1797 22.2371 14.2786 22.1533C14.4905 21.9729 14.6807 21.7696 14.8699 21.5642C15.3416 21.0544 15.7134 20.6522 16.4764 20.6522C17.2417 20.6522 17.6145 21.0555 18.0862 21.5653C18.2732 21.7674 18.4623 21.9696 18.6721 22.1479C18.8058 22.2609 18.983 22.3033 19.1547 22.262C19.3243 22.2196 19.4634 22.099 19.5286 21.9359L22.7873 13.7892C22.847 13.6403 22.8384 13.474 22.7634 13.3338Z" fill="#5489F0"/>
<path d="M7.06498 0C6.76498 0 6.52148 0.243495 6.52148 0.543495V2.17393H10.8693V0H7.06498Z" fill="#5489F0"/>
<path d="M17.9343 0H11.9561V2.17393H18.4778V0.543495C18.4778 0.243495 18.2343 0 17.9343 0Z" fill="#5489F0"/>
<path d="M11.9562 3.26074H8.69531V6.52161H11.9562V3.26074Z" fill="#5489F0"/>
<path d="M20.109 3.26074H16.3047V6.52161H20.6525V3.80424C20.6525 3.50424 20.409 3.26074 20.109 3.26074Z" fill="#5489F0"/>
<path d="M13.0439 7.60889V9.86434L15.2179 10.3469V7.60889H13.0439Z" fill="#5489F0"/>
<path d="M8.69531 7.60889V10.5883L11.9562 9.86434V7.60889H8.69531Z" fill="#5489F0"/>
<path d="M4.89115 3.26074C4.59115 3.26074 4.34766 3.50424 4.34766 3.80424V6.52161H7.60852V3.26074H4.89115Z" fill="#5489F0"/>
<path d="M16.3047 7.60889V10.5883L19.9917 11.4078C20.0308 11.4165 20.0699 11.4208 20.109 11.4208C20.2319 11.4208 20.3514 11.3795 20.4492 11.3013C20.5775 11.198 20.6525 11.0426 20.6525 10.8773V7.60889H16.3047Z" fill="#5489F0"/>
<path d="M4.34766 7.60889V10.8774C4.34766 11.0426 4.42266 11.198 4.5509 11.3013C4.68027 11.4045 4.8509 11.4426 5.00849 11.4078L7.60848 10.8306V7.60889H4.34766Z" fill="#5489F0"/>
<path d="M15.2179 3.26074H13.0439V6.52161H15.2179V3.26074Z" fill="#5489F0"/>
</svg>
