<svg width="31" height="30" viewBox="0 0 31 30" fill="none" xmlns="http://www.w3.org/2000/svg">
<g clip-path="url(#clip0)">
<path d="M25.2085 19.3999C23.7764 19.3999 22.6113 20.5441 22.6113 21.9499C22.6113 23.356 23.7764 24.4999 25.2085 24.4999C26.6404 24.4999 27.8058 23.356 27.8058 21.9499C27.8058 20.5441 26.6404 19.3999 25.2085 19.3999ZM25.2085 22.6999C24.7872 22.6999 24.4447 22.3636 24.4447 21.9499C24.4447 21.5362 24.7872 21.1999 25.2085 21.1999C25.6299 21.1999 25.9724 21.5362 25.9724 21.9499C25.9724 22.3636 25.6299 22.6999 25.2085 22.6999Z" fill="#5489F0"/>
<path d="M24.9598 8.80005H20.4724C20.1348 8.80005 19.8613 9.06887 19.8613 9.40005V21.1C19.8613 21.4312 20.1348 21.7 20.4724 21.7H21.1205C21.4231 21.7 21.691 21.4861 21.7301 21.1916C21.97 19.3873 23.4357 18.2684 25.2089 18.2684C26.982 18.2684 28.4477 19.3874 28.6876 21.1916C28.7267 21.4862 28.9944 21.7 29.2972 21.7H29.9446C30.2819 21.7 30.5557 21.4312 30.5557 21.1V15.25C30.5557 15.1091 30.5053 14.9728 30.4133 14.8651L25.4285 9.01515C25.3125 8.87897 25.1407 8.80005 24.9598 8.80005ZM21.0836 13.6V10.6C21.0836 10.2689 21.357 10 21.6947 10H24.3866C24.5678 10 24.7398 10.0793 24.8559 10.216L27.4021 13.216C27.7336 13.6069 27.4507 14.2 26.9325 14.2H21.6947C21.357 14.2 21.0836 13.9316 21.0836 13.6Z" fill="#5489F0"/>
<path d="M0.611111 21.7002H2.17589C2.4784 21.7002 2.74636 21.4863 2.78545 21.1918C3.0253 19.3875 4.49107 18.2686 6.26419 18.2686C8.03731 18.2686 9.50308 19.3876 9.74293 21.1918C9.78202 21.4864 10.0497 21.7002 10.3525 21.7002H18.0278C18.3651 21.7002 18.6389 21.4314 18.6389 21.1002V6.10024C18.6389 5.76907 18.3651 5.50024 18.0278 5.50024H0.611111C0.273452 5.50024 0 5.76907 0 6.10024V21.1002C0 21.4315 0.273452 21.7002 0.611111 21.7002Z" fill="#5489F0"/>
<path d="M6.26421 19.3999C4.8321 19.3999 3.66699 20.5441 3.66699 21.9499C3.66699 23.356 4.8321 24.4999 6.26421 24.4999C7.69603 24.4999 8.86144 23.356 8.86144 21.9499C8.86144 20.5441 7.69603 19.3999 6.26421 19.3999ZM6.26421 22.6999C5.84288 22.6999 5.50033 22.3636 5.50033 21.9499C5.50033 21.5362 5.84288 21.1999 6.26421 21.1999C6.68555 21.1999 7.0281 21.5362 7.0281 21.9499C7.0281 22.3636 6.68555 22.6999 6.26421 22.6999Z" fill="#5489F0"/>
</g>
<defs>
<clipPath id="clip0">
<rect width="30.5556" height="30" fill="white"/>
</clipPath>
</defs>
</svg>
