<svg width="27" height="27" viewBox="0 0 27 27" fill="none" xmlns="http://www.w3.org/2000/svg">
<path d="M15.3043 7.06034C15.6539 6.64685 15.873 6.11977 15.873 5.53711C15.873 4.50584 15.2118 3.62602 14.291 3.29922V1.58203H15.873V0H11.127V1.58203H12.709V4.74609H13.5C13.9364 4.74609 14.291 5.10068 14.291 5.53711C14.291 5.97354 13.9364 6.32812 13.5 6.32812C13.0636 6.32812 12.709 5.97354 12.709 5.53711H11.127C11.127 6.11977 11.3461 6.64685 11.6957 7.06034L3.81776 11.0742H0V27H27V11.0742H23.1822L15.3043 7.06034ZM13.4998 7.91016H13.5002L19.7013 11.0742H7.29865L13.4998 7.91016ZM4.79883 23.8359H3.2168V14.2383H4.79883V23.8359ZM9.54492 23.8359H7.96289V14.2383H9.54492V23.8359ZM14.291 23.8359H12.709V14.2383H14.291V23.8359ZM19.0371 23.8359H17.4551V14.2383H19.0371V23.8359ZM23.7832 23.8359H22.2012V14.2383H23.7832V23.8359Z" fill="#5489F0"/>
</svg>
