<svg width="25" height="25" viewBox="0 0 25 25" fill="none" xmlns="http://www.w3.org/2000/svg">
<path d="M4.68716 16.6665C3.25068 16.6665 2.08301 17.8353 2.08301 19.2707C2.08301 20.7061 3.25068 21.8749 4.68716 21.8749C6.12364 21.8749 7.29131 20.7061 7.29131 19.2707C7.29131 17.8353 6.12364 16.6665 4.68716 16.6665ZM4.68716 20.8332C3.82569 20.8332 3.12466 20.1322 3.12466 19.2707C3.12466 18.4092 3.82569 17.7082 4.68716 17.7082C5.54864 17.7082 6.24966 18.4092 6.24966 19.2707C6.24966 20.1322 5.54864 20.8332 4.68716 20.8332Z" fill="#5489F0"/>
<path d="M20.3122 16.6665C18.8757 16.6665 17.708 17.8353 17.708 19.2707C17.708 20.7061 18.8757 21.8749 20.3122 21.8749C21.7486 21.8749 22.9163 20.7061 22.9163 19.2707C22.9163 17.8353 21.7486 16.6665 20.3122 16.6665ZM20.3122 20.8332C19.4507 20.8332 18.7497 20.1322 18.7497 19.2707C18.7497 18.4092 19.4507 17.7082 20.3122 17.7082C21.1736 17.7082 21.8747 18.4092 21.8747 19.2707C21.8747 20.1322 21.1736 20.8332 20.3122 20.8332Z" fill="#5489F0"/>
<path d="M23.8177 12.8396C23.0615 12.65 22.3708 12.2594 21.8208 11.7094L17.124 7.01353C16.698 6.5875 16.15 6.32705 15.5594 6.26455L13.7542 3.7708C13.4615 3.36665 12.9885 3.125 12.4885 3.125H1.5625C0.701025 3.125 0 3.82603 0 4.6875V17.1875C0 18.6229 1.16772 19.7917 2.60415 19.7917C2.62915 19.7917 2.65 19.7812 2.67393 19.7781C2.63228 19.6146 2.60415 19.4469 2.60415 19.2708C2.60415 18.1198 3.53647 17.1875 4.6875 17.1875C5.83853 17.1875 6.77085 18.1198 6.77085 19.2708C6.77085 19.4469 6.74272 19.6146 6.70107 19.7781C6.72505 19.7812 6.74585 19.7917 6.77085 19.7917H18.2292C18.2542 19.7917 18.275 19.7812 18.299 19.7781C18.2573 19.6146 18.2292 19.4469 18.2292 19.2708C18.2292 18.1198 19.1615 17.1875 20.3125 17.1875C21.4635 17.1875 22.3958 18.1198 22.3958 19.2708C22.3958 19.4469 22.3677 19.6146 22.3261 19.7781C22.35 19.7812 22.3708 19.7917 22.3958 19.7917C23.8323 19.7917 25 18.6229 25 17.1875V14.3552C25 13.6365 24.5135 13.0135 23.8177 12.8396ZM9.89585 13.5417H3.64585C3.35835 13.5417 3.125 13.3083 3.125 13.0208C3.125 12.7333 3.35835 12.5 3.64585 12.5H9.89585C10.1833 12.5 10.4167 12.7333 10.4167 13.0208C10.4167 13.3083 10.1833 13.5417 9.89585 13.5417ZM9.89585 10.4166H3.64585C3.35835 10.4166 3.125 10.1833 3.125 9.8958C3.125 9.6083 3.35835 9.375 3.64585 9.375H9.89585C10.1833 9.375 10.4167 9.60835 10.4167 9.89585C10.4167 10.1834 10.1833 10.4166 9.89585 10.4166ZM11.9791 7.29165H3.64585C3.35835 7.29165 3.125 7.0583 3.125 6.7708C3.125 6.4833 3.35835 6.25 3.64585 6.25H11.9792C12.2667 6.25 12.5 6.48335 12.5 6.77085C12.5 7.05835 12.2667 7.29165 11.9791 7.29165ZM16.1458 15.625H15.1042C14.8167 15.625 14.5833 15.3917 14.5833 15.1042C14.5833 14.8167 14.8167 14.5833 15.1042 14.5833H16.1458C16.4333 14.5833 16.6667 14.8167 16.6667 15.1042C16.6667 15.3917 16.4333 15.625 16.1458 15.625ZM19.2708 13.5417H13.0208C12.7333 13.5417 12.5 13.3083 12.5 13.0208V8.85415C12.5 8.56665 12.7333 8.3333 13.0208 8.3333C13.3083 8.3333 13.5417 8.56665 13.5417 8.85415V12.5H19.2708C19.5583 12.5 19.7917 12.7333 19.7917 13.0208C19.7917 13.3083 19.5583 13.5417 19.2708 13.5417Z" fill="#5489F0"/>
</svg>
