<svg width="32" height="32" viewBox="0 0 32 32" fill="none" xmlns="http://www.w3.org/2000/svg">
<path d="M31.6844 26.76C26.9904 18.185 22.2944 9.61005 17.5994 1.03505C17.4428 0.738285 17.2083 0.48988 16.9209 0.316605C16.6336 0.14333 16.3044 0.0517578 15.9689 0.0517578C15.6334 0.0517578 15.3042 0.14333 15.0169 0.316605C14.7296 0.48988 14.495 0.738285 14.3384 1.03505C9.64391 9.61005 4.94541 18.185 0.253412 26.76C-0.473088 28.0845 0.452912 29.8015 1.88241 29.8015H30.0574C30.8494 29.8015 31.3814 29.375 31.6589 28.7965C32.0079 28.2455 32.1014 27.514 31.6864 26.759" fill="white"/>
<path d="M14.4581 17.2387L14.0136 10.6077C13.9306 9.31618 13.8906 8.38818 13.8906 7.82518C13.8906 7.05818 14.0906 6.46168 14.4916 6.03118C14.8941 5.60318 15.4231 5.38818 16.0791 5.38818C16.8706 5.38818 17.4021 5.66368 17.6681 6.21118C17.9366 6.76218 18.0726 7.55318 18.0726 8.58668C18.0726 9.19418 18.0396 9.81318 17.9736 10.4407L17.3786 17.2652C17.3141 18.0782 17.1766 18.7012 16.9651 19.1347C16.7521 19.5702 16.4011 19.7852 15.9106 19.7852C15.4146 19.7852 15.0656 19.5757 14.8746 19.1567C14.6781 18.7362 14.5406 18.0967 14.4581 17.2387ZM15.9941 26.3472C15.4316 26.3472 14.9411 26.1662 14.5206 25.8007C14.1001 25.4367 13.8906 24.9267 13.8906 24.2717C13.8906 23.7002 14.0906 23.2117 14.4916 22.8112C14.8941 22.4082 15.3846 22.2082 15.9671 22.2082C16.5496 22.2082 17.0436 22.4082 17.4556 22.8112C17.8631 23.2117 18.0726 23.7002 18.0726 24.2717C18.0726 24.9167 17.8631 25.4257 17.4496 25.7937C17.0521 26.1559 16.5319 26.3537 15.9941 26.3472Z" fill="#5489F0"/>
</svg>
