<svg width="27" height="27" viewBox="0 0 27 27" fill="none" xmlns="http://www.w3.org/2000/svg">
<g clip-path="url(#clip0)">
<path d="M10.125 11.25C7.02338 11.25 4.5 8.72663 4.5 5.625C4.5 2.52338 7.02338 0 10.125 0C13.2266 0 15.75 2.52338 15.75 5.625C15.75 8.72663 13.2266 11.25 10.125 11.25Z" fill="#5489F0"/>
<path d="M5.34375 13.5001C2.39625 13.5001 0 15.8963 0 18.8438V22.7813C0 23.2426 0.3825 23.6251 0.84375 23.6251H11.25V19.9688C11.25 17.8538 12.825 16.1101 14.8613 15.8063C15.1538 14.9513 15.705 14.2313 16.4138 13.7138C15.2888 13.3921 15.228 13.5001 5.34375 13.5001Z" fill="#5489F0"/>
<path d="M25.0317 18H23.6255V17.1562C23.6255 16.0706 22.7423 15.1875 21.6567 15.1875H18.8442C17.7586 15.1875 16.8754 16.0706 16.8754 17.1562V18H15.4692C14.9157 18 14.4173 18.2306 14.0596 18.5996L20.2505 21.8295L26.4413 18.5996C26.0836 18.2306 25.5852 18 25.0317 18ZM18.5629 18V17.1562C18.5629 17.001 18.6889 16.875 18.8442 16.875H21.6567C21.812 16.875 21.938 17.001 21.938 17.1562V18H18.5629Z" fill="#5489F0"/>
<path d="M20.6404 23.5294C20.3963 23.6566 20.1037 23.6566 19.8607 23.5294L13.5 20.2107V25.0313C13.5 26.1169 14.3831 27.0001 15.4688 27.0001H25.0312C26.1169 27.0001 27 26.1169 27 25.0313V20.2107L20.6404 23.5294Z" fill="#5489F0"/>
</g>
<defs>
<clipPath id="clip0">
<rect width="27" height="27" fill="white"/>
</clipPath>
</defs>
</svg>
