<svg width="25" height="25" viewBox="0 0 25 25" fill="none" xmlns="http://www.w3.org/2000/svg">
<path d="M19.7923 4.16675H5.20898C4.38018 4.16675 3.58533 4.49599 2.99928 5.08204C2.41322 5.66809 2.08398 6.46295 2.08398 7.29175V17.7084C2.08398 18.5372 2.41322 19.3321 2.99928 19.9181C3.58533 20.5042 4.38018 20.8334 5.20898 20.8334H19.7923C20.6211 20.8334 21.416 20.5042 22.002 19.9181C22.5881 19.3321 22.9173 18.5372 22.9173 17.7084V7.29175C22.9173 6.46295 22.5881 5.66809 22.002 5.08204C21.416 4.49599 20.6211 4.16675 19.7923 4.16675ZM19.7923 6.25008L13.0215 10.9063C12.8631 10.9978 12.6835 11.0459 12.5007 11.0459C12.3178 11.0459 12.1382 10.9978 11.9798 10.9063L5.20898 6.25008H19.7923Z" fill="#5489F0"/>
</svg>
