<svg width="31" height="31" viewBox="0 0 31 31" fill="none" xmlns="http://www.w3.org/2000/svg">
<path d="M15.4992 10.075V3.09998H8.52422C7.90759 3.09998 7.31622 3.34493 6.8802 3.78095C6.44417 4.21697 6.19922 4.80835 6.19922 5.42498V25.575C6.19922 26.1916 6.44417 26.783 6.8802 27.219C7.31622 27.655 7.90759 27.9 8.52422 27.9H22.4742C23.0908 27.9 23.6822 27.655 24.1182 27.219C24.5543 26.783 24.7992 26.1916 24.7992 25.575V12.4H17.8242C17.2076 12.4 16.6162 12.155 16.1802 11.719C15.7442 11.283 15.4992 10.6916 15.4992 10.075ZM9.29922 16.275C9.29922 16.0694 9.38087 15.8723 9.52621 15.727C9.67155 15.5816 9.86868 15.5 10.0742 15.5C10.2798 15.5 10.4769 15.5816 10.6222 15.727C10.7676 15.8723 10.8492 16.0694 10.8492 16.275C10.8492 16.4805 10.7676 16.6776 10.6222 16.823C10.4769 16.9683 10.2798 17.05 10.0742 17.05C9.86868 17.05 9.67155 16.9683 9.52621 16.823C9.38087 16.6776 9.29922 16.4805 9.29922 16.275ZM9.29922 19.375C9.29922 19.1694 9.38087 18.9723 9.52621 18.827C9.67155 18.6816 9.86868 18.6 10.0742 18.6C10.2798 18.6 10.4769 18.6816 10.6222 18.827C10.7676 18.9723 10.8492 19.1694 10.8492 19.375C10.8492 19.5805 10.7676 19.7776 10.6222 19.923C10.4769 20.0683 10.2798 20.15 10.0742 20.15C9.86868 20.15 9.67155 20.0683 9.52621 19.923C9.38087 19.7776 9.29922 19.5805 9.29922 19.375ZM9.29922 22.475C9.29922 22.2694 9.38087 22.0723 9.52621 21.927C9.67155 21.7816 9.86868 21.7 10.0742 21.7C10.2798 21.7 10.4769 21.7816 10.6222 21.927C10.7676 22.0723 10.8492 22.2694 10.8492 22.475C10.8492 22.6805 10.7676 22.8776 10.6222 23.023C10.4769 23.1683 10.2798 23.25 10.0742 23.25C9.86868 23.25 9.67155 23.1683 9.52621 23.023C9.38087 22.8776 9.29922 22.6805 9.29922 22.475ZM12.3992 16.275C12.3992 16.0694 12.4809 15.8723 12.6262 15.727C12.7716 15.5816 12.9687 15.5 13.1742 15.5H20.9242C21.1298 15.5 21.3269 15.5816 21.4722 15.727C21.6176 15.8723 21.6992 16.0694 21.6992 16.275C21.6992 16.4805 21.6176 16.6776 21.4722 16.823C21.3269 16.9683 21.1298 17.05 20.9242 17.05H13.1742C12.9687 17.05 12.7716 16.9683 12.6262 16.823C12.4809 16.6776 12.3992 16.4805 12.3992 16.275ZM12.3992 19.375C12.3992 19.1694 12.4809 18.9723 12.6262 18.827C12.7716 18.6816 12.9687 18.6 13.1742 18.6H20.9242C21.1298 18.6 21.3269 18.6816 21.4722 18.827C21.6176 18.9723 21.6992 19.1694 21.6992 19.375C21.6992 19.5805 21.6176 19.7776 21.4722 19.923C21.3269 20.0683 21.1298 20.15 20.9242 20.15H13.1742C12.9687 20.15 12.7716 20.0683 12.6262 19.923C12.4809 19.7776 12.3992 19.5805 12.3992 19.375ZM12.3992 22.475C12.3992 22.2694 12.4809 22.0723 12.6262 21.927C12.7716 21.7816 12.9687 21.7 13.1742 21.7H20.9242C21.1298 21.7 21.3269 21.7816 21.4722 21.927C21.6176 22.0723 21.6992 22.2694 21.6992 22.475C21.6992 22.6805 21.6176 22.8776 21.4722 23.023C21.3269 23.1683 21.1298 23.25 20.9242 23.25H13.1742C12.9687 23.25 12.7716 23.1683 12.6262 23.023C12.4809 22.8776 12.3992 22.6805 12.3992 22.475ZM17.0492 10.075V3.48748L24.4117 10.85H17.8242C17.6187 10.85 17.4216 10.7683 17.2762 10.623C17.1309 10.4776 17.0492 10.2805 17.0492 10.075Z" fill="#5489F0"/>
</svg>
