<svg width="28" height="28" viewBox="0 0 28 28" fill="none" xmlns="http://www.w3.org/2000/svg">
<path d="M22.7588 16.905C23.5218 15.4722 23.9197 13.8734 23.9173 12.25C23.9173 6.77312 19.4776 2.33337 14.0007 2.33337C8.52375 2.33337 4.084 6.77312 4.084 12.25C4.07998 14.5894 4.9069 16.8541 6.41733 18.6405L6.429 18.655C6.43308 18.6585 6.43658 18.6632 6.4395 18.6667H6.41733L12.302 24.9142C12.5201 25.1458 12.7833 25.3303 13.0754 25.4564C13.3675 25.5825 13.6822 25.6475 14.0004 25.6475C14.3185 25.6475 14.6333 25.5825 14.9253 25.4564C15.2174 25.3303 15.4806 25.1458 15.6987 24.9142L21.584 18.6667H21.5618L21.5712 18.6556L21.5723 18.6545C21.6143 18.6043 21.6563 18.5541 21.6978 18.5028C22.1024 18.0055 22.4579 17.4702 22.7594 16.9045L22.7588 16.905ZM14.003 16.0417C13.0747 16.0417 12.1845 15.673 11.5281 15.0166C10.8717 14.3602 10.503 13.47 10.503 12.5417C10.503 11.6134 10.8717 10.7232 11.5281 10.0668C12.1845 9.41046 13.0747 9.04171 14.003 9.04171C14.9313 9.04171 15.8215 9.41046 16.4779 10.0668C17.1343 10.7232 17.503 11.6134 17.503 12.5417C17.503 13.47 17.1343 14.3602 16.4779 15.0166C15.8215 15.673 14.9313 16.0417 14.003 16.0417Z" fill="#5489F0"/>
</svg>
