<svg width="70" height="70" viewBox="0 0 70 70" fill="none" xmlns="http://www.w3.org/2000/svg">
<path d="M5.83203 19.6875C5.83203 17.5603 6.67708 15.5201 8.18128 14.0159C9.68548 12.5117 11.7256 11.6667 13.8529 11.6667H56.1445C58.2718 11.6667 60.3119 12.5117 61.8161 14.0159C63.3203 15.5201 64.1654 17.5603 64.1654 19.6875V50.3125C64.1654 51.3658 63.9579 52.4088 63.5548 53.382C63.1517 54.3551 62.5609 55.2393 61.8161 55.9841C61.0713 56.7289 60.1871 57.3197 59.214 57.7228C58.2408 58.1259 57.1978 58.3334 56.1445 58.3334H36.3841L30.405 52.3542C31.4783 50.2046 32.082 47.775 32.082 45.2084H44.4779C45.058 45.2084 45.6144 44.9779 46.0247 44.5676C46.4349 44.1574 46.6654 43.601 46.6654 43.0209C46.6654 42.4407 46.4349 41.8843 46.0247 41.4741C45.6144 41.0638 45.058 40.8334 44.4779 40.8334H31.4783C31.0399 39.283 30.3692 37.8079 29.4891 36.4584H50.3112C50.8914 36.4584 51.4478 36.2279 51.858 35.8176C52.2682 35.4074 52.4987 34.851 52.4987 34.2709C52.4987 33.6907 52.2682 33.1343 51.858 32.7241C51.4478 32.3138 50.8914 32.0834 50.3112 32.0834H25.2658C22.6554 30.2459 19.4733 29.1667 16.0404 29.1667C12.1612 29.1667 8.60286 30.5434 5.83203 32.8329V19.6875ZM19.6862 23.3334C19.106 23.3334 18.5496 23.5638 18.1394 23.9741C17.7292 24.3843 17.4987 24.9407 17.4987 25.5209C17.4987 26.101 17.7292 26.6574 18.1394 27.0676C18.5496 27.4779 19.106 27.7084 19.6862 27.7084H38.6445C39.2247 27.7084 39.7811 27.4779 40.1913 27.0676C40.6016 26.6574 40.832 26.101 40.832 25.5209C40.832 24.9407 40.6016 24.3843 40.1913 23.9741C39.7811 23.5638 39.2247 23.3334 38.6445 23.3334H19.6862Z" fill="#5489F0"/>
<path d="M16.0408 58.3334C18.7664 58.3374 21.4251 57.4889 23.6445 55.9067L31.2658 63.5251C31.466 63.74 31.7075 63.9124 31.9759 64.0319C32.2442 64.1515 32.5338 64.2158 32.8276 64.2209C33.1213 64.2261 33.413 64.1721 33.6854 64.0621C33.9578 63.9521 34.2052 63.7883 34.4129 63.5806C34.6207 63.3729 34.7844 63.1254 34.8944 62.853C35.0045 62.5807 35.0585 62.2889 35.0533 61.9952C35.0481 61.7015 34.9838 61.4118 34.8643 61.1435C34.7447 60.8752 34.5723 60.6337 34.3574 60.4334L26.7391 52.8121C28.4436 50.4139 29.2929 47.5125 29.1507 44.5737C29.0084 41.6349 27.8828 38.8291 25.9546 36.6068C24.0263 34.3845 21.4073 32.8745 18.5179 32.3192C15.6285 31.764 12.6363 32.1957 10.0217 33.545C7.40714 34.8944 5.32176 37.0831 4.10036 39.7599C2.87896 42.4367 2.59238 45.4462 3.28664 48.3054C3.98089 51.1645 5.61571 53.7075 7.92865 55.5261C10.2416 57.3447 13.0985 58.3333 16.0408 58.3334ZM16.0408 53.9584C13.7201 53.9584 11.4945 53.0365 9.85357 51.3956C8.21263 49.7546 7.29076 47.529 7.29076 45.2084C7.29076 42.8877 8.21263 40.6621 9.85357 39.0212C11.4945 37.3803 13.7201 36.4584 16.0408 36.4584C18.3614 36.4584 20.587 37.3803 22.2279 39.0212C23.8689 40.6621 24.7908 42.8877 24.7908 45.2084C24.7908 47.529 23.8689 49.7546 22.2279 51.3956C20.587 53.0365 18.3614 53.9584 16.0408 53.9584Z" fill="#5489F0"/>
</svg>
