<svg width="27" height="27" viewBox="0 0 27 27" fill="none" xmlns="http://www.w3.org/2000/svg">
<path fill-rule="evenodd" clip-rule="evenodd" d="M5.3998 5.39995C5.3998 4.68387 5.68427 3.99711 6.19062 3.49076C6.69696 2.98441 7.38372 2.69995 8.09981 2.69995H18.8998C19.6159 2.69995 20.3026 2.98441 20.809 3.49076C21.3153 3.99711 21.5998 4.68387 21.5998 5.39995V21.5999C21.9578 21.5999 22.3012 21.7422 22.5544 21.9954C22.8076 22.2485 22.9498 22.5919 22.9498 22.9499C22.9498 23.308 22.8076 23.6514 22.5544 23.9045C22.3012 24.1577 21.9578 24.2999 21.5998 24.2999H17.5498C17.1918 24.2999 16.8484 24.1577 16.5952 23.9045C16.342 23.6514 16.1998 23.308 16.1998 22.9499V20.25C16.1998 19.8919 16.0576 19.5485 15.8044 19.2954C15.5512 19.0422 15.2078 18.9 14.8498 18.9H12.1498C11.7918 18.9 11.4484 19.0422 11.1952 19.2954C10.942 19.5485 10.7998 19.8919 10.7998 20.25V22.9499C10.7998 23.308 10.6576 23.6514 10.4044 23.9045C10.1512 24.1577 9.80785 24.2999 9.44981 24.2999H5.3998C5.04176 24.2999 4.69838 24.1577 4.44521 23.9045C4.19204 23.6514 4.0498 23.308 4.0498 22.9499C4.0498 22.5919 4.19204 22.2485 4.44521 21.9954C4.69838 21.7422 5.04176 21.5999 5.3998 21.5999V5.39995ZM9.44981 6.74995H12.1498V9.44995H9.44981V6.74995ZM12.1498 12.15H9.44981V14.85H12.1498V12.15ZM14.8498 6.74995H17.5498V9.44995H14.8498V6.74995ZM17.5498 12.15H14.8498V14.85H17.5498V12.15Z" fill="#5489F0"/>
</svg>
