<svg width="77" height="77" viewBox="0 0 77 77" fill="none" xmlns="http://www.w3.org/2000/svg">
<path d="M62.4345 32.0833C62.118 32.551 61.9306 33.094 61.8912 33.6573C61.8517 34.2206 61.9617 34.7844 62.2099 35.2916C63.0062 37.1501 63.5667 39.101 63.8783 41.0987C64.7041 46.2646 63.9317 51.5595 61.6645 56.2742C61.3892 56.7913 60.9775 57.2231 60.4741 57.5229C59.9708 57.8226 59.3949 57.9789 58.8091 57.9746H18.2237C17.6345 57.9758 17.0564 57.8148 16.5528 57.5092C16.0491 57.2036 15.6393 56.7652 15.3683 56.2421C13.3145 52.0758 12.4299 47.4304 12.8086 42.801C13.1873 38.1715 14.8152 33.7316 17.5187 29.9546C20.2223 26.1775 23.9001 23.2049 28.1602 21.3537C32.4202 19.5024 37.1028 18.8419 41.7087 19.4425C44.0392 19.7164 46.3187 20.3214 48.4783 21.2391C48.9855 21.4874 49.5493 21.5973 50.1126 21.5579C50.6759 21.5185 51.2189 21.331 51.6866 21.0146C52.1739 20.6935 52.5644 20.2457 52.8161 19.7193C53.0678 19.1928 53.1711 18.6077 53.115 18.0269C53.0589 17.4461 52.8455 16.8916 52.4977 16.4231C52.1499 15.9545 51.6809 15.5897 51.1412 15.3679C44.9433 12.7103 38.0656 12.0732 31.485 13.5472C24.9045 15.0211 18.9556 18.5311 14.4836 23.5786C10.0115 28.6261 7.24364 34.9544 6.57309 41.6646C5.90255 48.3748 7.36344 55.1257 10.7483 60.9583C11.3081 61.9281 12.1121 62.7345 13.0802 63.2974C14.0483 63.8602 15.1468 64.1599 16.2666 64.1666H60.702C61.8327 64.1711 62.9445 63.8768 63.9248 63.3134C64.9051 62.75 65.7192 61.9375 66.2845 60.9583C68.7626 56.6638 70.2115 51.8533 70.5177 46.9046C70.8239 41.9558 69.9789 37.0035 68.0491 32.4362C67.8047 31.9157 67.4249 31.4704 66.9494 31.147C66.4739 30.8236 65.9202 30.634 65.3463 30.5979C64.7723 30.5618 64.1993 30.6807 63.687 30.942C63.1748 31.2033 62.7422 31.5975 62.4345 32.0833Z" fill="#5489F0"/>
<path d="M33.9761 40.3927C32.7721 41.5968 32.0957 43.2298 32.0957 44.9325C32.0957 45.7757 32.2618 46.6105 32.5844 47.3895C32.9071 48.1684 33.38 48.8762 33.9761 49.4723C34.5723 50.0685 35.2801 50.5414 36.059 50.8641C36.838 51.1867 37.6728 51.3528 38.5159 51.3528C40.2187 51.3528 41.8517 50.6764 43.0557 49.4723L61.2149 22.2336L33.9761 40.3927Z" fill="#5489F0"/>
</svg>
