<svg width="34" height="34" viewBox="0 0 34 34" fill="none" xmlns="http://www.w3.org/2000/svg">
<path d="M20.7919 21.101H17.9961V18.8554C19.2776 18.4353 20.2061 17.2286 20.2061 15.8085V11.7312C19.3491 12.4836 18.2273 12.9412 17 12.9412C15.7727 12.9412 14.6509 12.4836 13.7939 11.7312V15.8085C13.7939 17.2286 14.7223 18.4353 16.0038 18.8554V21.101H13.208V26.0284H20.7919V21.101H20.7919Z" fill="#5489F0"/>
<path d="M3.63184 21.1008H11.2157V26.0282H3.63184V21.1008Z" fill="#5489F0"/>
<path d="M22.7842 21.1008H30.3681V26.0282H22.7842V21.1008Z" fill="#5489F0"/>
<path d="M2.98859 28.021C1.34072 28.021 0 29.3617 0 31.0097C0 32.6576 1.34072 33.9983 2.98859 33.9983H31.0113C32.6593 33.9983 33.9999 32.6576 33.9999 31.0097C33.9999 29.3617 32.6592 28.021 31.0113 28.021H2.98859Z" fill="#5489F0"/>
<path d="M16.9999 3.20811C19.6833 3.20811 21.8664 5.39126 21.8664 8.07463C21.8664 8.38882 21.8354 8.69578 21.7782 8.9935C24.3153 8.56049 26.2533 6.34726 26.2533 3.6886V1.9943H31.4334V0.00195312H2.56641V1.9943H7.74652V3.68867C7.74652 6.34733 9.68441 8.56056 12.2216 8.99357C12.1644 8.69578 12.1334 8.38889 12.1334 8.07469C12.1333 5.39126 14.3164 3.20811 16.9999 3.20811Z" fill="#5489F0"/>
<path d="M17.0001 10.9488C18.5849 10.9488 19.8743 9.65939 19.8743 8.07461C19.8743 6.48982 18.5849 5.20044 17.0001 5.20044C15.4154 5.20044 14.126 6.48982 14.126 8.07461C14.126 9.65945 15.4154 10.9488 17.0001 10.9488ZM16.004 7.14484H17.9963V9.13733H16.004V7.14484Z" fill="#5489F0"/>
</svg>
