<svg width="42" height="42" viewBox="0 0 42 42" fill="none" xmlns="http://www.w3.org/2000/svg">
<g clip-path="url(#clip0)">
<path d="M37.8358 27.9553H36.1619C36.2062 27.7177 36.306 27.4313 36.5097 27.1155C37.1369 26.1436 37.271 25.2853 37.3893 24.5279C37.4639 24.0507 37.5344 23.5999 37.726 23.0798C37.8957 22.6191 38.2223 22.2449 38.5567 21.9598L39.7138 24.8121L42 23.8845L37.863 13.6548L36.8579 13.8582C36.7432 13.8814 34.0285 14.463 32.331 17.6063C31.092 19.9007 28.3025 21.6821 24.9089 22.3959L24.2324 19.9143L23.0262 20.2674C21.034 20.8505 19.8758 21.3757 18.0932 22.4291C18.0836 22.4416 18.0737 22.4547 18.064 22.4672L13.3781 28.7597H9.53187C9.53187 28.7597 7.37685 25.8221 6.14555 24.1832C5.45918 24.4448 4.85586 24.8252 4.33019 25.3271C3.00028 26.5968 2.4589 28.6978 2.88654 30.6198L0 32.5395L3.41296 38.7119H5.06854L6.3477 37.2723C7.6387 35.8196 9.49371 34.9864 11.4371 34.9864C13.0765 34.9864 14.6639 35.5806 15.907 36.6597C17.3219 37.8878 18.6975 38.562 19.9913 38.7058C21.4768 38.8709 22.3726 38.5074 23.5718 38.1229C24.4806 37.8314 25.175 37.5321 26.3662 37.6866C26.8696 37.7518 27.3277 37.783 27.7475 37.783C30.1017 37.7829 31.2301 36.8011 32.1192 35.3422C32.4263 34.8383 32.8553 34.5485 33.2638 34.4198C34.3337 34.0826 35.3168 35.3373 35.3168 35.3373L37.6477 34.1916C38.0624 35.333 38.2731 36.5268 38.2731 37.7455H40.7403C40.7403 36.099 40.4303 34.489 39.819 32.9602L37.8358 27.9553Z" fill="#5489F0"/>
<path d="M10.7816 26.2926H12.1275L16.1028 20.9698C17.7808 18.7744 20.079 15.7677 20.079 11.8778C20.079 7.12232 16.2101 3.25342 11.4546 3.25342C6.69906 3.25342 2.83008 7.12232 2.83008 11.8778C2.83008 15.7677 5.1282 18.7744 6.8063 20.9698L10.7816 26.2926ZM7.34794 11.8778C7.34794 9.61345 9.1902 7.77119 11.4546 7.77119C13.719 7.77119 15.5613 9.61345 15.5613 11.8778C15.5613 14.1422 13.719 15.9845 11.4546 15.9845C9.1902 15.9845 7.34794 14.1423 7.34794 11.8778Z" fill="#5489F0"/>
<path d="M12.975 12.5081C13.3218 11.6714 12.9247 10.7121 12.0881 10.3653C11.2514 10.0185 10.2921 10.4156 9.94529 11.2522C9.59851 12.0889 9.99561 13.0482 10.8322 13.395C11.6689 13.7418 12.6282 13.3447 12.975 12.5081Z" fill="#5489F0"/>
</g>
<defs>
<clipPath id="clip0">
<rect width="42" height="42" fill="white"/>
</clipPath>
</defs>
</svg>
