<svg width="25" height="25" viewBox="0 0 25 25" fill="none" xmlns="http://www.w3.org/2000/svg">
<path d="M5.20801 13.021C3.48511 13.021 2.08301 14.4231 2.08301 16.146C2.08301 17.8689 3.48511 19.271 5.20801 19.271C6.93091 19.271 8.33301 17.8689 8.33301 16.146C8.33301 14.4231 6.93091 13.021 5.20801 13.021ZM5.20801 18.2293C4.05903 18.2293 3.12466 17.2949 3.12466 16.146C3.12466 14.9971 4.05903 14.0626 5.20801 14.0626C6.35698 14.0626 7.29136 14.997 7.29136 16.146C7.29136 17.295 6.35693 18.2293 5.20801 18.2293Z" fill="#5489F0"/>
<path d="M22.3958 9.89565H20.5656C19.8698 9.89565 19.2156 9.6248 18.724 9.13315L16.3886 6.79775C15.699 6.10815 14.7833 5.729 13.8094 5.729H7.8125C6.95103 5.729 6.25 6.43003 6.25 7.2915V9.89565H0.52085C0.23335 9.89565 0 10.129 0 10.4164V15.6248C0 15.6821 0.009375 15.7394 0.028125 15.7946C0.0479004 15.8508 0.53125 17.1873 2.60415 17.1873H2.82393C2.68433 16.8675 2.60415 16.5164 2.60415 16.1456C2.60415 14.7071 3.76978 13.5415 5.2083 13.5415C6.64683 13.5415 7.81245 14.7071 7.81245 16.1456C7.81245 16.5165 7.73223 16.8675 7.59268 17.1873H17.4073C17.2677 16.8675 17.1875 16.5164 17.1875 16.1456C17.1875 14.7071 18.3531 13.5415 19.7917 13.5415C21.2302 13.5415 22.3958 14.7071 22.3958 16.1456C22.3958 16.5165 22.3156 16.8675 22.176 17.1873H22.3958C23.9291 17.1873 25 16.1164 25 14.5831V12.4998C25 11.0644 23.8312 9.89565 22.3958 9.89565ZM13.0208 13.0206H11.9792C11.6917 13.0206 11.4584 12.7873 11.4584 12.4998C11.4584 12.2123 11.6917 11.9789 11.9792 11.9789H13.0208C13.3083 11.9789 13.5417 12.2123 13.5417 12.4998C13.5417 12.7873 13.3083 13.0206 13.0208 13.0206ZM16.1458 10.9373H11.9792C11.6917 10.9373 11.4584 10.7039 11.4584 10.4164V8.3331C11.4584 8.0456 11.6917 7.81225 11.9792 7.81225C12.2667 7.81225 12.5 8.04565 12.5 8.33315V9.89565H16.1458C16.4333 9.89565 16.6667 10.129 16.6667 10.4165C16.6667 10.704 16.4333 10.9373 16.1458 10.9373Z" fill="#5489F0"/>
<path d="M19.792 13.021C18.0691 13.021 16.667 14.4231 16.667 16.146C16.667 17.8689 18.0691 19.271 19.792 19.271C21.5149 19.271 22.917 17.8689 22.917 16.146C22.917 14.4231 21.5149 13.021 19.792 13.021ZM19.792 18.2293C18.643 18.2293 17.7086 17.2949 17.7086 16.1459C17.7086 14.997 18.6431 14.0626 19.792 14.0626C20.941 14.0626 21.8753 14.997 21.8753 16.146C21.8753 17.295 20.941 18.2293 19.792 18.2293Z" fill="#5489F0"/>
</svg>
