<svg width="34" height="34" viewBox="0 0 34 34" fill="none" xmlns="http://www.w3.org/2000/svg">
<g clip-path="url(#clip0)">
<path d="M3.44699 22.3098C3.44699 22.3098 2.49381 26.8401 4.70012 29.0465C6.90644 31.2528 11.4368 30.2996 11.4368 30.2996C11.4368 30.2996 12.39 25.7692 10.1836 23.5629C7.97733 21.3566 3.44699 22.3098 3.44699 22.3098Z" fill="#5489F0"/>
<path d="M9.14284 17.5471C9.14284 17.5471 10.096 13.0168 7.88971 10.8105C5.68339 8.60416 1.15305 9.55735 1.15305 9.55735C1.15305 9.55735 0.199859 14.0877 2.40618 16.294C4.6125 18.5003 9.14284 17.5471 9.14284 17.5471Z" fill="#5489F0"/>
<path d="M20.456 17.1611C20.456 14.0409 16.5786 11.5115 16.5786 11.5115C16.5786 11.5115 12.7012 14.0409 12.7012 17.1611C12.7012 20.2813 16.5786 22.8107 16.5786 22.8107C16.5786 22.8107 20.456 20.2813 20.456 17.1611Z" fill="#5489F0"/>
<path d="M27.4025 11.895C30.5228 11.895 33.0522 8.01757 33.0522 8.01757C33.0522 8.01757 30.5227 4.14014 27.4025 4.14014C24.2824 4.14014 21.7529 8.01757 21.7529 8.01757C21.7529 8.01757 24.2823 11.895 27.4025 11.895Z" fill="#5489F0"/>
<path d="M17.8194 6.94144C20.0257 4.73512 19.0725 0.204777 19.0725 0.204777C19.0725 0.204777 14.5423 -0.748346 12.3359 1.45797C10.1295 3.66429 11.0827 8.19464 11.0827 8.19464C11.0827 8.19464 15.6131 9.14776 17.8194 6.94144Z" fill="#5489F0"/>
<path d="M21.3098 26.2454C18.1895 26.2454 15.6602 30.1228 15.6602 30.1228C15.6602 30.1228 18.1896 34.0002 21.3098 34.0002C24.43 34.0002 26.9594 30.1228 26.9594 30.1228C26.9594 30.1228 24.43 26.2454 21.3098 26.2454Z" fill="#5489F0"/>
<path d="M25.7138 16.2641C23.5075 18.4704 24.4607 23.0008 24.4607 23.0008C24.4607 23.0008 28.991 23.9539 31.1973 21.7476C33.4036 19.5413 32.4505 15.0109 32.4505 15.0109C32.4505 15.0109 27.9201 14.0578 25.7138 16.2641Z" fill="#5489F0"/>
</g>
<defs>
<clipPath id="clip0">
<rect width="34" height="34" fill="white"/>
</clipPath>
</defs>
</svg>
