<svg width="40" height="40" viewBox="0 0 40 40" fill="none" xmlns="http://www.w3.org/2000/svg">
<path d="M36.9553 10.296C36.9074 9.24365 36.9074 8.23916 36.9074 7.23468C36.9074 6.42152 36.2856 5.7997 35.4724 5.7997C29.4934 5.7997 24.9493 4.07773 21.1705 0.394619C20.5965 -0.13154 19.7355 -0.13154 19.1615 0.394619C15.3828 4.07773 10.8387 5.7997 4.85958 5.7997C4.04643 5.7997 3.42461 6.42152 3.42461 7.23468C3.42461 8.23916 3.42461 9.24365 3.37677 10.296C3.18544 20.3408 2.89845 34.1166 19.6877 39.9043L20.166 40L20.6443 39.9043C37.3857 34.1166 37.1466 20.3886 36.9553 10.296ZM19.018 24.2152C18.731 24.4544 18.3962 24.5979 18.0135 24.5979H17.9657C17.5831 24.5979 17.2004 24.4066 16.9612 24.1196L12.5128 19.1928L14.6653 17.2795L18.157 21.154L25.9059 13.7877L27.8671 15.8924L19.018 24.2152Z" fill="#5489F0"/>
</svg>
