<svg width="34" height="34" viewBox="0 0 34 34" fill="none" xmlns="http://www.w3.org/2000/svg">
<g clip-path="url(#clip0)">
<path d="M23.4082 17.5645C23.9574 17.5645 24.4043 17.1176 24.4043 16.5684C24.4043 16.0191 23.9574 15.5723 23.4082 15.5723C22.859 15.5723 22.4121 16.0191 22.4121 16.5684C22.4121 17.1176 22.8589 17.5645 23.4082 17.5645Z" fill="#5489F0"/>
<path d="M10.5918 17.5645C11.141 17.5645 11.5879 17.1176 11.5879 16.5684C11.5879 16.0191 11.141 15.5723 10.5918 15.5723C10.0426 15.5723 9.5957 16.0191 9.5957 16.5684C9.5957 17.1176 10.0425 17.5645 10.5918 17.5645Z" fill="#5489F0"/>
<path d="M33.9938 32.4615L31.5356 10.4811C31.4792 9.97694 31.053 9.5957 30.5457 9.5957H24.4043V13.7515C25.5636 14.1626 26.3964 15.2698 26.3964 16.5683C26.3964 18.2161 25.0559 19.5566 23.4082 19.5566C21.7604 19.5566 20.4199 18.2161 20.4199 16.5683C20.4199 15.2698 21.2527 14.1626 22.4121 13.7515V9.5957H11.5879V13.7515C12.7473 14.1626 13.5801 15.2698 13.5801 16.5683C13.5801 18.2161 12.2395 19.5566 10.5918 19.5566C8.94408 19.5566 7.60354 18.2161 7.60354 16.5683C7.60354 15.2698 8.43634 14.1626 9.59572 13.7515V9.5957H3.45111C2.94377 9.5957 2.51744 9.97701 2.46119 10.4812L0.00616464 32.4616C-0.0253118 32.7433 0.0647347 33.025 0.253726 33.2363C0.442718 33.4476 0.712658 33.5683 0.996145 33.5683H33.004C33.2875 33.5683 33.5575 33.4476 33.7465 33.2363C33.9354 33.025 34.0254 32.7432 33.9938 32.4615Z" fill="#5489F0"/>
<path d="M11.5879 7.83594C11.5879 4.85171 14.0158 2.42383 17 2.42383C19.9842 2.42383 22.4121 4.85171 22.4121 7.83594V9.5957H24.4043V7.83594C24.4043 3.75321 21.0827 0.431641 17 0.431641C12.9173 0.431641 9.5957 3.75321 9.5957 7.83594V9.5957H11.5879V7.83594Z" fill="#5489F0"/>
</g>
<defs>
<clipPath id="clip0">
<rect width="34" height="34" fill="white"/>
</clipPath>
</defs>
</svg>
