<svg width="27" height="25" viewBox="0 0 27 25" fill="none" xmlns="http://www.w3.org/2000/svg">
<g clip-path="url(#clip0)">
<path d="M21.3978 12.4156C24.4441 12.4156 26.9137 11.0354 26.9137 9.33281C26.9137 7.63022 24.4441 6.25 21.3978 6.25C18.3514 6.25 15.8818 7.63022 15.8818 9.33281C15.8818 11.0354 18.3514 12.4156 21.3978 12.4156Z" fill="#5489F0"/>
<path fill-rule="evenodd" clip-rule="evenodd" d="M21.4808 14.1891C17.5356 14.1891 15.9648 12.5625 15.9648 11.6204V15.6563C15.9648 17.3594 18.4345 18.7375 21.4808 18.7375C24.5302 18.7375 26.9999 17.3594 26.9999 15.6563V11.7172C26.9999 12.661 25.4275 14.1891 21.4808 14.1891Z" fill="#5489F0"/>
<path fill-rule="evenodd" clip-rule="evenodd" d="M21.4808 20.425C17.9517 20.425 15.9648 18.861 15.9648 17.9188V21.9172C15.9648 23.6204 18.4345 25.0001 21.4808 25.0001C24.5302 25.0001 26.9999 23.6204 26.9999 21.9172V17.8704C26.9999 18.8125 25.0114 20.425 21.4808 20.425Z" fill="#5489F0"/>
<path d="M7.84077 6.16563C11.2941 6.16563 14.0937 4.7854 14.0937 3.08281C14.0937 1.38022 11.2941 0 7.84077 0C4.3874 0 1.58789 1.38022 1.58789 3.08281C1.58789 4.7854 4.3874 6.16563 7.84077 6.16563Z" fill="#5489F0"/>
<path fill-rule="evenodd" clip-rule="evenodd" d="M8.03902 7.93911C3.56813 7.93911 1.78613 6.31255 1.78613 5.37036V9.4063C1.78613 11.1094 4.58619 12.4875 8.03902 12.4875C11.495 12.4875 14.2935 11.1094 14.2935 9.4063V5.46724C14.2935 6.41099 12.5099 7.93911 8.03902 7.93911Z" fill="#5489F0"/>
<path fill-rule="evenodd" clip-rule="evenodd" d="M8.03902 14.175C4.03825 14.175 1.78613 12.611 1.78613 11.6688V15.6672C1.78613 17.3704 4.58619 18.75 8.03902 18.75C11.495 18.75 14.2935 17.3704 14.2935 15.6672V11.6204C14.2935 12.5625 12.0382 14.175 8.03902 14.175Z" fill="#5489F0"/>
<path fill-rule="evenodd" clip-rule="evenodd" d="M8.03902 20.425C4.03825 20.425 1.78613 18.861 1.78613 17.9188V21.9172C1.78613 23.6204 4.58619 25.0001 8.03902 25.0001C11.495 25.0001 14.2935 23.6204 14.2935 21.9172V17.8704C14.2935 18.8125 12.0382 20.425 8.03902 20.425Z" fill="#5489F0"/>
</g>
<defs>
<clipPath id="clip0">
<rect width="27" height="25" fill="white"/>
</clipPath>
</defs>
</svg>
