<svg width="39" height="32" viewBox="0 0 39 32" fill="none" xmlns="http://www.w3.org/2000/svg">
<path d="M10.9716 5.35718L13.326 12.6015H20.9432L14.7855 17.0866L17.1399 24.3309L10.9716 19.8565L4.80327 24.3309L7.16832 17.0866L1 12.6015H8.61719L10.9716 5.35718Z" fill="#5489F0"/>
<path d="M28.3796 31L26.5792 28.7841L23.9158 29.8175L25.4606 27.4205L23.6602 25.1939L26.4194 25.929L27.9748 23.532L28.1239 26.3871L30.8938 27.1222L28.2198 28.1449L28.3796 31Z" fill="#5489F0"/>
<path d="M31.9584 24.5015L32.8106 21.7742L30.4775 20.1229L33.3327 20.0803L34.1743 17.353L35.1011 20.059L37.9562 20.027L35.6657 21.7316L36.5819 24.4375L34.2488 22.7863L31.9584 24.5015Z" fill="#5489F0"/>
<path d="M36.7847 8.77696L35.5276 11.3444L37.5731 13.3366L34.7499 12.9318L33.4928 15.4886L33.0028 12.6761L30.1689 12.2713L32.7045 10.9396L32.2144 8.11646L34.2599 10.1086L36.7847 8.77696Z" fill="#5489F0"/>
<path d="M28.4539 1L28.2409 3.84446L30.8936 4.92046L28.113 5.60227L27.9106 8.45739L26.4085 6.02841L23.6279 6.71023L25.471 4.52628L23.9582 2.10795L26.6109 3.18395L28.4539 1Z" fill="#5489F0"/>
</svg>
