<svg width="25" height="25" viewBox="0 0 25 25" fill="none" xmlns="http://www.w3.org/2000/svg">
<g clip-path="url(#clip0)">
<path d="M8.65922 18.8644C8.43525 18.6852 8.10819 18.7227 7.92694 18.9456L3.76024 24.1539C3.58109 24.3789 3.61752 24.706 3.84149 24.8862C3.93734 24.9622 4.05297 24.9997 4.16649 24.9997C4.31859 24.9997 4.47064 24.9331 4.57377 24.805L8.74042 19.5966C8.91962 19.3717 8.88319 19.0446 8.65922 18.8644Z" fill="#5489F0"/>
<path d="M21.2394 24.153L17.0728 18.9446C16.8936 18.7217 16.5655 18.6832 16.3405 18.8634C16.1165 19.0436 16.0801 19.3707 16.2593 19.5957L20.4259 24.804C20.529 24.9332 20.6801 24.9999 20.8332 24.9999C20.9478 24.9999 21.0623 24.9624 21.1582 24.8853C21.3821 24.7051 21.4186 24.378 21.2394 24.153Z" fill="#5489F0"/>
<path d="M19.7917 22.9165H5.20835C4.92085 22.9165 4.6875 23.1499 4.6875 23.4374C4.6875 23.7249 4.92085 23.9582 5.20835 23.9582H19.7917C20.0792 23.9582 20.3125 23.7249 20.3125 23.4374C20.3125 23.1499 20.0792 22.9165 19.7917 22.9165Z" fill="#5489F0"/>
<path d="M18.2292 20.8335H6.77085C6.48335 20.8335 6.25 21.0668 6.25 21.3543C6.25 21.6418 6.48335 21.8752 6.77085 21.8752H18.2292C18.5167 21.8752 18.75 21.6418 18.75 21.3543C18.75 21.0668 18.5167 20.8335 18.2292 20.8335Z" fill="#5489F0"/>
<path d="M7.29136 16.6667C7.57901 16.6667 7.81221 16.4335 7.81221 16.1458C7.81221 15.8582 7.57901 15.625 7.29136 15.625C7.0037 15.625 6.77051 15.8582 6.77051 16.1458C6.77051 16.4335 7.0037 16.6667 7.29136 16.6667Z" fill="#5489F0"/>
<path d="M20.4747 3.44272C20.3684 1.5125 18.7694 0 16.8351 0H8.16426C6.22988 0 4.63091 1.5125 4.52466 3.44375L4.19238 9.42188C7.20488 9.8229 11.2778 13.2979 12.4997 14.3979C13.7215 13.2979 17.7944 9.8229 20.8069 9.4208L20.4747 3.44272ZM11.9788 8.33335C11.9788 8.59897 11.7798 8.82187 11.5153 8.85107L6.82778 9.37192C6.80903 9.37402 6.79028 9.37505 6.77051 9.37505C6.64238 9.37505 6.51948 9.32817 6.42363 9.24277C6.31323 9.1438 6.24966 9.00215 6.24966 8.85425V5.2084C6.24966 4.94277 6.44863 4.71987 6.71318 4.69067L11.4007 4.16982C11.5486 4.1542 11.6955 4.20005 11.8059 4.30005C11.9153 4.39795 11.9788 4.53965 11.9788 4.68755V8.33335ZM10.9372 2.60415C10.9372 1.74268 11.6382 1.04165 12.4997 1.04165C13.3611 1.04165 14.0622 1.74268 14.0622 2.60415C14.0622 3.46562 13.3611 4.16665 12.4997 4.16665C11.6382 4.16665 10.9372 3.46562 10.9372 2.60415ZM18.7497 8.85415C18.7497 9.00205 18.6861 9.14375 18.5757 9.24267C18.4798 9.32808 18.3569 9.37495 18.2288 9.37495C18.209 9.37495 18.1903 9.37393 18.1715 9.37183L13.484 8.85098C13.2194 8.82183 13.0205 8.59888 13.0205 8.33325V4.6875C13.0205 4.5396 13.084 4.3979 13.1945 4.29897C13.3049 4.2 13.4518 4.1542 13.5997 4.16875L18.2862 4.69062C18.5508 4.71978 18.7497 4.94272 18.7497 5.20835V8.85415H18.7497Z" fill="#5489F0"/>
<path d="M17.7083 16.6667C17.996 16.6667 18.2292 16.4335 18.2292 16.1458C18.2292 15.8582 17.996 15.625 17.7083 15.625C17.4207 15.625 17.1875 15.8582 17.1875 16.1458C17.1875 16.4335 17.4207 16.6667 17.7083 16.6667Z" fill="#5489F0"/>
<path d="M12.5003 3.1252C12.788 3.1252 13.0212 2.892 13.0212 2.60435C13.0212 2.31669 12.788 2.0835 12.5003 2.0835C12.2127 2.0835 11.9795 2.31669 11.9795 2.60435C11.9795 2.892 12.2127 3.1252 12.5003 3.1252Z" fill="#5489F0"/>
<path d="M21.2303 17.0427L20.8647 10.4614C17.7282 10.9187 12.9084 15.4343 12.8574 15.4823C12.8272 15.5114 12.7897 15.5271 12.7543 15.5479C12.7334 15.5594 12.7168 15.5771 12.6949 15.5854C12.6324 15.6114 12.5668 15.625 12.5001 15.625C12.4335 15.625 12.3668 15.6115 12.3043 15.5854C12.2834 15.5771 12.2668 15.5604 12.2459 15.5489C12.2105 15.5291 12.173 15.5125 12.1418 15.4833C12.0908 15.4354 7.27202 10.9198 4.13452 10.4625L3.76889 17.0437C3.72827 17.7656 3.98037 18.4531 4.47724 18.9781C4.97412 19.502 5.64599 19.7916 6.36889 19.7916H18.6304C19.3533 19.7916 20.0251 19.502 20.522 18.977C21.0189 18.452 21.2709 17.7646 21.2303 17.0427ZM7.29174 17.7083C6.43027 17.7083 5.72924 17.0073 5.72924 16.1458C5.72924 15.2843 6.43027 14.5833 7.29174 14.5833C8.15322 14.5833 8.85424 15.2843 8.85424 16.1458C8.85424 17.0072 8.15322 17.7083 7.29174 17.7083ZM17.7084 17.7083C16.847 17.7083 16.1459 17.0073 16.1459 16.1458C16.1459 15.2843 16.847 14.5833 17.7084 14.5833C18.5699 14.5833 19.2709 15.2843 19.2709 16.1458C19.2709 17.0072 18.5699 17.7083 17.7084 17.7083Z" fill="#5489F0"/>
</g>
<defs>
<clipPath id="clip0">
<rect width="25" height="25" fill="white"/>
</clipPath>
</defs>
</svg>
