<svg width="26" height="26" viewBox="0 0 26 26" fill="none" xmlns="http://www.w3.org/2000/svg">
<g clip-path="url(#clip0)">
<path d="M22.1529 10.387C15.2326 6.86837 7.36764 13.3283 10.9643 19.2552C12.6337 22.0394 16.4882 23.7976 21.049 22.4781C21.9612 22.8324 22.7737 23.4065 23.6577 23.8334C23.4291 23.0642 23.1854 22.3037 22.9254 21.5465C27.6379 18.1892 26.6065 12.649 22.1529 10.387ZM16.629 14.3824C16.4026 15.092 15.3767 15.3043 14.8795 14.7648C14.3313 14.2654 14.5447 13.2221 15.264 12.999C16.0592 12.6631 16.9779 13.585 16.629 14.3824ZM21.8074 14.4842H21.8225C21.5441 15.1201 20.5865 15.2696 20.1163 14.7767C19.8899 14.5687 19.8238 14.2556 19.7436 13.9826C19.8563 13.4843 20.1986 12.9675 20.7511 12.9437C21.5149 12.8375 22.1984 13.7844 21.8074 14.4842Z" fill="#5489F0"/>
<path d="M18.8663 8.93536C18.3939 6.61269 16.7689 4.65077 14.7236 3.51869H14.7528V3.51761C7.49451 -0.583894 -1.54266 5.13719 0.203674 11.8842C0.672757 13.8862 2.05726 15.5643 3.73751 16.6844C3.41251 17.6085 3.10376 18.5326 2.81126 19.4632C3.86751 18.9085 4.92376 18.3289 5.98109 17.7656C7.24859 18.174 8.59734 18.3734 9.94609 18.3289C8.27992 13.5493 12.5537 8.48577 18.8663 8.93536ZM12.2828 6.16094C13.1333 5.81861 14.1386 6.53469 14.0714 7.45011L14.0736 7.46311C14.0823 8.50852 12.6923 9.16069 11.9123 8.45219C11.1031 7.86936 11.3328 6.45344 12.2828 6.16094ZM7.51076 7.72852C7.32442 8.63636 6.11217 9.07511 5.40259 8.46519C4.58034 7.88344 4.81109 6.44152 5.77634 6.14794C6.72209 5.78177 7.79676 6.74594 7.51076 7.72852Z" fill="#5489F0"/>
</g>
<defs>
<clipPath id="clip0">
<rect width="26" height="26" fill="white"/>
</clipPath>
</defs>
</svg>
