<svg width="33" height="33" viewBox="0 0 33 33" fill="none" xmlns="http://www.w3.org/2000/svg">
<path d="M14.85 19.8H1.65V29.7C1.65 30.5752 1.99768 31.4146 2.61655 32.0335C3.23542 32.6523 4.07479 33 4.95 33H28.05C28.9252 33 29.7646 32.6523 30.3835 32.0335C31.0023 31.4146 31.35 30.5752 31.35 29.7V19.8H18.15V23.1H14.85V19.8ZM14.85 18.15H0V8.25C0 6.435 1.485 4.95 3.3 4.95H9.9V3.3C9.9 2.42479 10.2477 1.58542 10.8665 0.966548C11.4854 0.347678 12.3248 0 13.2 0L19.8 0C20.6752 0 21.5146 0.347678 22.1335 0.966548C22.7523 1.58542 23.1 2.42479 23.1 3.3V4.95H29.7C30.5752 4.95 31.4146 5.29768 32.0335 5.91655C32.6523 6.53542 33 7.37479 33 8.25V18.15H18.15V14.85H14.85V18.15ZM19.8 4.95V3.3H13.2V4.95H19.8Z" fill="white"/>
</svg>
